<?xml version="1.0" encoding="UTF-8"?>
<svg width="16px" height="7px" viewBox="0 0 16 7" version="1.1" xmlns="http://www.w3.org/2000/svg" xmlns:xlink="http://www.w3.org/1999/xlink">
    <title>上箭头</title>
    <g id="页面-1" stroke="none" stroke-width="1" fill="none" fill-rule="evenodd">
        <g id="0820-52拖动状态" transform="translate(-648, -722)" fill="#181818">
            <g id="1备份-5" transform="translate(636, 722)">
                <path d="M36,1.00172909 C38.209139,1.00172909 40,2.79259009 40,5.00172909 L40,27.0752882 C40,29.2844272 38.209139,31.0752882 36,31.0752882 L25.512,31.0747291 L21.0254426,36.3669725 C20.3110873,37.2094511 19.049024,37.3133156 18.2065453,36.5989604 C18.1229933,36.5281148 18.045403,36.4505245 17.9745574,36.3669725 L13.487,31.0747291 L4,31.0752882 C1.790861,31.0752882 3.55271368e-15,29.2844272 3.55271368e-15,27.0752882 L3.55271368e-15,5.00172909 C3.55271368e-15,2.79259009 1.790861,1.00172909 4,1.00172909 L36,1.00172909 Z" id="1备份-3" transform="translate(20, 19.0376) rotate(-180) translate(-20, -19.0376)"></path>
            </g>
        </g>
    </g>
</svg>