<?xml version="1.0" encoding="UTF-8"?>
<svg width="7px" height="16px" viewBox="0 0 7 16" version="1.1" xmlns="http://www.w3.org/2000/svg" xmlns:xlink="http://www.w3.org/1999/xlink">
    <title>三角左边</title>
    <g id="页面-1" stroke="none" stroke-width="1" fill="none" fill-rule="evenodd">
        <g id="0820-52拖动状态" transform="translate(-686, -736)" fill="#181818">
            <g id="2备份-5" transform="translate(686, 729)">
                <path d="M35.6302866,0 C37.8394256,0 39.6302866,1.790861 39.6302866,4 L39.63,8.143 L45.928843,13.5205122 C46.7689065,14.2377061 46.8685118,15.5001127 46.1513179,16.3401761 C46.0831167,16.4200614 46.0087284,16.4944498 45.928843,16.562651 L39.63,21.939 L39.6302866,26 C39.6302866,28.209139 37.8394256,30 35.6302866,30 L4,30 C1.790861,30 1.18571819e-13,28.209139 1.17239551e-13,26 L1.17239551e-13,4 C1.17239551e-13,1.790861 1.790861,-4.4408921e-16 4,0 L35.6302866,0 Z" id="2备份-3" transform="translate(23.3151, 15) rotate(-180) translate(-23.3151, -15)"></path>
            </g>
        </g>
    </g>
</svg>