<?xml version="1.0" encoding="UTF-8"?>
<svg width="16px" height="7px" viewBox="0 0 16 7" version="1.1" xmlns="http://www.w3.org/2000/svg" xmlns:xlink="http://www.w3.org/1999/xlink">
    <title>下箭头</title>
    <g id="页面-1" stroke="none" stroke-width="1" fill="none" fill-rule="evenodd">
        <g id="0820-52拖动状态" transform="translate(-648, -799.0736)" fill="#181818">
            <g id="1备份-6" transform="translate(636, 769)">
                <path d="M36,0 C38.209139,-4.4408921e-15 40,1.790861 40,4 L40,26.0735591 C40,28.2826981 38.209139,30.0735591 36,30.0735591 L25.512,30.073 L21.0254426,35.3652434 C20.3110873,36.207722 19.049024,36.3115866 18.2065453,35.5972313 C18.1229933,35.5263857 18.045403,35.4487954 17.9745574,35.3652434 L13.487,30.073 L4,30.0735591 C1.790861,30.0735591 -7.10542736e-15,28.2826981 -7.10542736e-15,26.0735591 L-7.10542736e-15,4 C-7.10542736e-15,1.790861 1.790861,4.4408921e-16 4,0 L36,0 Z" id="1备份-4" transform="translate(20, 18.0359) rotate(-360) translate(-20, -18.0359)"></path>
            </g>
        </g>
    </g>
</svg>